<svg id="Layer_1" data-name="Layer 1" xmlns="http://www.w3.org/2000/svg" viewBox="0 0 49.2 49.2"><title>1161954_instagram_icon</title><circle cx="24.4" cy="24.8" r="4.4"/><path d="M29.9,14h-11A5.46,5.46,0,0,0,15,15.4a5.46,5.46,0,0,0-1.4,3.9v11a5.51,5.51,0,0,0,1.5,4A5.64,5.64,0,0,0,19,35.7H29.9a5.46,5.46,0,0,0,3.9-1.4,5.12,5.12,0,0,0,1.5-3.9v-11a5.64,5.64,0,0,0-1.4-3.9A5.35,5.35,0,0,0,29.9,14ZM24.4,31.6a6.8,6.8,0,0,1,0-13.6,6.8,6.8,0,1,1,0,13.6Zm7.1-12.3a1.6,1.6,0,1,1,1.6-1.6A1.58,1.58,0,0,1,31.5,19.3Z"/><path d="M24.6,0A24.6,24.6,0,1,0,49.2,24.6,24.58,24.58,0,0,0,24.6,0ZM37.7,30.4a7.93,7.93,0,0,1-2.2,5.7,7.78,7.78,0,0,1-5.6,2.1H19a7.78,7.78,0,0,1-5.6-2.1,7.53,7.53,0,0,1-2.2-5.7v-11A7.4,7.4,0,0,1,19,11.6H30a7.69,7.69,0,0,1,5.6,2.2,7.62,7.62,0,0,1,2.1,5.6Z"/></svg>