<svg id="Camada_1" data-name="Camada 1" xmlns="http://www.w3.org/2000/svg" viewBox="0 0 24.96 26.1"><title>logo_icon</title><g id="_10" data-name="10"><path d="M24.48,3.79l-6-3.6-.08,0a1,1,0,0,0-1.24.16l-8.42,9L4.1,5.08A1,1,0,0,0,3,4.92L.56,6.13A1,1,0,0,0,0,6.84a1,1,0,0,0,.25.86l5,5.35-5,5.34a1,1,0,0,0-.25.86A1,1,0,0,0,.56,20L3,21.18a1,1,0,0,0,.44.1,1,1,0,0,0,.64-.23L8.94,17l8.22,8.81a1,1,0,0,0,.73.31,1,1,0,0,0,.52-.16s.05,0,.07,0l6-3.6a1,1,0,0,0,.49-.86V4.65A1,1,0,0,0,24.48,3.79ZM3.28,19.09l-.62-.31,4-4.27.93,1ZM17,22.65,2.66,7.32,3.25,7,17,19.59Zm0-5.78-3.76-3.44L17,10.3Zm0-9.18-5.25,4.37-1.51-1.38L17,3.45Zm6,13.19-4,2.4V2.81l4,2.4Z" transform="translate(-0.01 -0.01)"/></g></svg>